<svg width="293" height="300" fill="none" xmlns="http://www.w3.org/2000/svg"><ellipse cx="146.5" cy="150" rx="146.5" ry="150" fill="#5F37A8"/><ellipse cx="146.5" cy="143.35" rx="146.5" ry="143.35" fill="#834EE3"/><ellipse cx="146.5" cy="143.35" rx="146.5" ry="143.35" fill="url(#a)"/><ellipse cx="146.5" cy="146.306" rx="112.465" ry="112.315" fill="#BABFD4"/><ellipse cx="146.5" cy="152.217" rx="112.465" ry="106.404" fill="url(#b)"/><path fill-rule="evenodd" clip-rule="evenodd" d="M200.448 92.994c-4.831-2.46-11.084-1.582-17.609 2.472-5.159 3.205-9.895 8.075-12.36 12.707-4.706 8.846-2.861 16.646-1.673 19.939-1.624 5.175-3.866 9.475-6.717 12.895-2.298-2.889-3.58-6.528-3.58-10.335v-.186l6.04-6.254c.645-.669 2.316-3.303 0-5.702a3.8 3.8 0 0 0-5.506 0l-.535.554v-1.259c0-2.226-1.743-4.031-3.893-4.031-2.15 0-3.894 1.805-3.894 4.031v1.259l-.534-.554a3.8 3.8 0 0 0-5.506 0c-1.521 1.574-1.521 4.127 0 5.701l6.041 6.254v.186c0 5.76 1.959 11.267 5.472 15.612-6.309 4.12-14.482 5.515-24.474 4.158a46.166 46.166 0 0 0-10.812-.193c-4.474-4.53-10.607-7.1-17.066-7.1h-.182l-6.127-6.046a3.988 3.988 0 0 0-5.585 0 3.86 3.86 0 0 0 0 5.511l.542.535h-1.233c-2.18 0-3.949 1.745-3.949 3.897 0 2.152 1.768 3.896 3.95 3.896h1.232l-.542.535a3.86 3.86 0 0 0 0 5.511 3.965 3.965 0 0 0 2.793 1.142c1.01 0 2.021-.381 2.792-1.142l6.127-6.046h.182c2.391 0 4.714.53 6.821 1.514.282-.077.566-.152.851-.225l-.258.086c-6.682 2.252-12.71 6.162-17.429 11.306-8.139 8.87-11.12 19.933-8.62 31.993 1.841 8.88 6.038 15.172 6.215 15.436a3.975 3.975 0 0 0 4.25 1.64 4.003 4.003 0 0 0 3.003-3.445c.02-.183 2.179-18.426 13.329-28.749 1.42-1.314 6.789-5.504 16.255-4.217 3.341.454 6.573.724 9.694.812a16.404 16.404 0 0 1 1.438 10.933l-.038.18-7.311 4.769c-1.84 1.201-2.373 3.688-1.191 5.556a3.926 3.926 0 0 0 5.473 1.209l.647-.422-.263 1.226c-.465 2.17.891 4.311 3.028 4.783a3.9 3.9 0 0 0 .846.093c1.822 0 3.462-1.284 3.866-3.166l.263-1.226.416.656a3.94 3.94 0 0 0 3.335 1.848c.733 0 1.475-.206 2.138-.638 1.839-1.201 2.373-3.688 1.19-5.556l-4.698-7.421.039-.181a24.592 24.592 0 0 0-.69-12.877c10.775-.943 19.992-4.384 27.533-10.3a46.696 46.696 0 0 0 2.597-2.195 23.848 23.848 0 0 0 15.607 5.79h.181l6.105 6.045a3.939 3.939 0 0 0 2.782 1.142 3.943 3.943 0 0 0 2.783-1.142 3.87 3.87 0 0 0 0-5.51l-.54-.536h1.228c2.173.001 3.935-1.744 3.935-3.896s-1.762-3.896-3.935-3.896h-1.229l.54-.535a3.87 3.87 0 0 0 0-5.511 3.96 3.96 0 0 0-5.564 0l-6.105 6.045h-.181a15.951 15.951 0 0 1-10.263-3.722c4.345-5.474 7.749-12.093 10.172-19.793 6.256-2.231 10.689-5.899 13.19-10.919 4.431-8.893 5.999-29.417-4.829-34.93z" fill="#3B4262"/><defs><linearGradient id="a" x1="0" y1="0" x2="0" y2="286.7" gradientUnits="userSpaceOnUse"><stop stop-color="#fff" stop-opacity=".097"/><stop offset="1" stop-color="#fff" stop-opacity=".01"/></linearGradient><linearGradient id="b" x1="257.101" y1="258.621" x2="257.101" y2="49.34" gradientUnits="userSpaceOnUse"><stop stop-color="#F3F3F3"/><stop offset="1" stop-color="#DADADA"/></linearGradient></defs></svg>