<svg width="293" height="300" fill="none" xmlns="http://www.w3.org/2000/svg"><ellipse cx="146.305" cy="150" rx="146.305" ry="150" fill="#2A45C2"/><ellipse cx="146.305" cy="143.35" rx="146.305" ry="143.35" fill="#4664F4"/><ellipse cx="146.305" cy="143.35" rx="146.305" ry="143.35" fill="url(#a)"/><circle cx="146.305" cy="146.306" r="112.315" fill="#BABFD4"/><ellipse cx="146.305" cy="152.217" rx="112.315" ry="106.404" fill="url(#b)"/><path d="M189.944 117.226c-.828-.318-1.689-.455-2.485-.4-1.149.081-2.077.55-2.627 1.317-3.239 4.557-5.891 13.162-8.03 20.077-.982 3.198-2.3 7.477-3.254 9.508-.995-5.69.129-26.534.565-34.561l.007-.13c.303-5.577.343-6.555.277-6.984-.48-3.06-1.701-5.068-3.629-5.966-1.949-.912-4.481-.509-7.208 1.14-1.368.83-1.746 3.681-2.919 16.603l-.005.056c-.646 7.099-2.133 23.445-3.964 26.167-2.065-3.808-4.906-25.447-6.133-34.814-.858-6.56-1.358-10.326-1.694-11.463-.707-2.384-3.694-4.411-6.651-4.524-2.461-.123-4.481 1.135-5.445 3.32-1.803 2.016-1.166 8.7.827 24.532.949 7.534 2.907 23.098 1.675 24.843-2.458-.268-6.677-10.017-12.541-28.983-1.645-5.312-2.155-6.909-2.66-7.609-.996-2.436-4.382-4.314-7.417-4.102-.26.018-.512.052-.761.1-1.589.317-5.215 1.786-4.442 8.565 2.142 9.399 4.467 16.301 6.724 22.999l.046.134c1.35 4.012 2.627 7.803 3.813 12.01 2.797 9.933 1.709 16.096 1.696 16.165-.093.634-.288 1.022-.581 1.157-.106.05-.241.079-.394.09-.886.062-2.215-.527-2.9-.911-1.564-3.004-9.355-17.32-16.414-19.305l-.254-.076-.256.024c-2.589.246-4.493 1.229-5.657 2.921-1.843 2.677-1.08 6.086-.895 6.77l.104.245c.058.103 5.719 10.469 6.595 15.291.755 4.134 4.664 8.615 7.807 12.215l.129.147c1.026 1.178 1.91 2.196 2.608 3.138 9.119 9.554 23.54 17.589 23.658 17.654 1.799 1.334 2.799 2.622 2.905 3.732.067.726-.308 1.16-.322 1.175l-.314.329 1.994 1.946 38.046-2.685 1.622-7.466c5.016-21.086 3.969-39.065 3.953-39.185.018-.661 1.424-7.058 2.554-12.227l.034-.131c2.253-10.297 5.056-23.108 5.594-27.981.233-2.083-1.094-3.997-3.381-4.867z" fill="#3B4262"/><defs><linearGradient id="a" x1="0" y1="0" x2="0" y2="286.699" gradientUnits="userSpaceOnUse"><stop stop-color="#fff" stop-opacity=".097"/><stop offset="1" stop-color="#fff" stop-opacity=".01"/></linearGradient><linearGradient id="b" x1="256.759" y1="258.621" x2="256.759" y2="49.34" gradientUnits="userSpaceOnUse"><stop stop-color="#F3F3F3"/><stop offset="1" stop-color="#DADADA"/></linearGradient></defs></svg>