<svg width="293" height="300" fill="none" xmlns="http://www.w3.org/2000/svg"><ellipse cx="146.305" cy="150" rx="146.305" ry="150" fill="#9D1634"/><ellipse cx="146.305" cy="143.35" rx="146.305" ry="143.35" fill="#DB2E4D"/><ellipse cx="146.305" cy="143.35" rx="146.305" ry="143.35" fill="url(#a)"/><circle cx="146.306" cy="146.306" r="112.315" fill="#BABFD4"/><ellipse cx="146.306" cy="152.217" rx="112.315" ry="106.404" fill="url(#b)"/><path d="M189.814 130.175c-1.295-16.409-19.643-14.734-19.643-14.734-7.744-13.712-19.842-3.78-19.842-3.78-9.294-13.439-20.948-.986-20.948-.986-20.092-2.176-19.313 14.324-19.313 14.324-.473 5.245 2.832 21.473 2.832 21.473-2.981-9.353-9.447-1.589-9.447-1.589-7.948 12.319-1.965 19.063-1.965 19.063 10.755 12.662 33.676 27.857 33.676 27.857 8.299 4.776 4.789 9.034 4.789 9.034l50.199-8.331 1.154-9.562c7.631-23.183-1.492-52.769-1.492-52.769z" fill="#3B4262"/><defs><linearGradient id="a" x1="0" y1="0" x2="0" y2="286.699" gradientUnits="userSpaceOnUse"><stop stop-color="#fff" stop-opacity=".097"/><stop offset="1" stop-color="#fff" stop-opacity=".01"/></linearGradient><linearGradient id="b" x1="256.759" y1="258.621" x2="256.759" y2="49.34" gradientUnits="userSpaceOnUse"><stop stop-color="#F3F3F3"/><stop offset="1" stop-color="#DADADA"/></linearGradient></defs></svg>