<svg width="336" height="330" fill="none" xmlns="http://www.w3.org/2000/svg"><g clip-path="url(#a)"><ellipse cx="284.5" cy="142.172" rx="51.5" ry="50.172" fill="#B1B4C5"/><ellipse cx="284.5" cy="142.172" rx="51.5" ry="50.172" fill="url(#b)"/><ellipse cx="284.5" cy="143.207" rx="39.535" ry="39.31" fill="#E1E4ED"/><path d="M299.861 133.029a2.076 2.076 0 0 0-.875-.14c-.404.028-.731.192-.925.461-1.14 1.595-2.073 4.607-2.826 7.027-.346 1.119-.81 2.617-1.146 3.328-.35-1.992.046-9.287.199-12.097l.003-.045c.106-1.952.121-2.295.097-2.445-.169-1.071-.599-1.773-1.277-2.088-.686-.319-1.578-.178-2.538.399-.481.291-.614 1.288-1.027 5.811l-.002.02c-.227 2.485-.751 8.205-1.395 9.158-.727-1.333-1.727-8.906-2.159-12.185-.302-2.296-.478-3.614-.596-4.012-.249-.834-1.3-1.544-2.341-1.583-.867-.043-1.578.397-1.917 1.162-.635.705-.41 3.045.291 8.586.334 2.637 1.023 8.084.59 8.695-.865-.094-2.35-3.506-4.415-10.144-.579-1.859-.758-2.418-.936-2.663-.351-.853-1.543-1.51-2.611-1.436-.091.007-.18.018-.268.035-.559.111-1.835.625-1.563 2.998.753 3.29 1.572 5.705 2.367 8.05l.016.047c.475 1.404.924 2.73 1.342 4.203.984 3.476.602 5.633.597 5.658-.033.222-.101.357-.205.405a.385.385 0 0 1-.138.031c-.312.022-.78-.184-1.021-.319-.551-1.051-3.293-6.062-5.778-6.757l-.089-.026-.091.009c-.911.085-1.581.43-1.991 1.022-.649.937-.38 2.13-.315 2.369l.037.086c.02.036 2.013 3.664 2.321 5.352.266 1.447 1.642 3.015 2.748 4.275l.046.051c.361.413.672.769.918 1.099 3.21 3.344 8.286 6.156 8.327 6.179.634.467.986.918 1.023 1.306.024.254-.109.406-.113.411l-.111.115.702.681 13.393-.939.57-2.613c1.766-7.381 1.398-13.673 1.392-13.715.006-.232.501-2.471.899-4.28l.012-.046c.793-3.603 1.78-8.087 1.969-9.793.082-.729-.385-1.399-1.19-1.703z" fill="#8A90AC"/><ellipse cx="51.5" cy="144.5" rx="51.5" ry="52.5" fill="#B1B4C5"/><ellipse cx="51.5" cy="142.172" rx="51.5" ry="50.172" fill="url(#c)"/><ellipse cx="51.5" cy="143.207" rx="39.535" ry="39.31" fill="#E1E4ED"/><path d="m68.933 146.218-.613-.609c-1.465-1.458-3.86-1.775-5.648-.753l-3.818 2.17.796-17.383A2.654 2.654 0 0 0 56.99 127c-.316 0-.62.056-.904.157l.095-.932c0-1.474-1.21-2.673-2.697-2.673-1.375 0-2.528 1.025-2.674 2.34l-2.45 14.721c-.033.2-.382.18-.419.054l-2.894-11.802A2.598 2.598 0 0 0 42.56 127c-.795 0-1.533.355-2.028.975a2.546 2.546 0 0 0-.489 2.185l.562 2.377a2.373 2.373 0 0 0-.948.12 2.445 2.445 0 0 0-1.653 2.708l1.704 9.738c0 3.843.677 6.686 1.246 8.393.324.974.488 1.999.488 3.045 0 .911-.127 1.818-.38 2.693l-1.32 4.598a.862.862 0 0 0 .833 1.099H56.18a.866.866 0 0 0 .823-1.135c-.008-.022-.733-2.248-.047-5.277.87-.702 3.917-3.165 5.01-4.158 1.81-1.643 6.764-6.718 6.974-6.933a.858.858 0 0 0-.008-1.21z" fill="#8A90AC"/><ellipse cx="168.5" cy="52.5" rx="51.5" ry="52.5" fill="#B1B4C5"/><ellipse cx="168.5" cy="50.172" rx="51.5" ry="50.172" fill="url(#d)"/><ellipse cx="168.5" cy="51.207" rx="39.535" ry="39.31" fill="#E1E4ED"/><path d="m158.179 50.87 4.271-5.97c-1.775-.294-5.035-.36-7.705 2.295-4.209 4.185-5.913 13.225-6.269 15.414l10.697 10.636c1.926-.164 10.451-1.296 18.667-9.464.087-.177 2.088-1.647.452-3.274-.781-.776-2.074-.762-2.872.032a1.009 1.009 0 0 1-1.435.014.996.996 0 0 1 .014-1.428l2.903-2.886c1.475-1.467.085-3.942-1.974-3.347l-2.377 2.023a1.023 1.023 0 0 1-1.436-.099c-.368-.424-.289-1.067.13-1.429 8.302-7.242 7.09-6.37 12.431-11.348 1.995-1.651-.515-4.574-2.481-2.9L168.274 50.69a1.01 1.01 0 0 1-1.322-.014c-.427-.367-.436-.895-.157-1.312l9.012-13.931c1.317-1.774-1.275-3.744-2.663-1.956l-13.325 18.53a1.01 1.01 0 0 1-1.411.245.977.977 0 0 1-.229-1.383z" fill="#8A90AC"/><ellipse cx="238.5" cy="277.5" rx="51.5" ry="52.5" fill="#B1B4C5"/><ellipse cx="238.5" cy="275.172" rx="51.5" ry="50.172" fill="url(#e)"/><ellipse cx="238.5" cy="276.207" rx="39.535" ry="39.31" fill="#E1E4ED"/><path d="M253.815 270.561c-.456-5.743-6.914-5.157-6.914-5.157-2.726-4.799-6.985-1.323-6.985-1.323-3.271-4.704-7.373-.345-7.373-.345-7.073-.762-6.799 5.013-6.799 5.013-.166 1.836.997 7.516.997 7.516-1.049-3.274-3.325-.556-3.325-.556-2.798 4.312-.692 6.672-.692 6.672 3.786 4.431 11.854 9.75 11.854 9.75 2.921 1.671 1.686 3.162 1.686 3.162l17.67-2.916.406-3.347c2.686-8.114-.525-18.469-.525-18.469z" fill="#8A90AC"/><g><ellipse cx="97.5" cy="277.5" rx="51.5" ry="52.5" fill="#B1B4C5"/><ellipse cx="97.5" cy="275.172" rx="51.5" ry="50.172" fill="url(#f)"/><ellipse cx="97.5" cy="276.207" rx="39.535" ry="39.31" fill="#E1E4ED"/><path fill-rule="evenodd" clip-rule="evenodd" d="M116.465 257.548c-1.699-.861-3.897-.554-6.19.865-1.814 1.122-3.479 2.826-4.345 4.447-1.655 3.096-1.006 5.826-.589 6.979-.571 1.811-1.359 3.316-2.361 4.513a5.791 5.791 0 0 1-1.259-3.617v-.065l2.124-2.189c.227-.234.814-1.156 0-1.996a1.34 1.34 0 0 0-1.936 0l-.188.194v-.441c0-.779-.613-1.411-1.368-1.411-.756 0-1.37.632-1.37 1.411v.441l-.187-.194a1.34 1.34 0 0 0-1.936 0 1.443 1.443 0 0 0 0 1.996l2.124 2.189v.065c0 2.016.689 3.943 1.924 5.464-2.218 1.442-5.091 1.93-8.604 1.455a16.29 16.29 0 0 0-3.8-.067 8.44 8.44 0 0 0-6-2.486h-.064l-2.154-2.116a1.407 1.407 0 0 0-1.963 0 1.347 1.347 0 0 0 0 1.929l.19.188h-.433c-.766 0-1.388.61-1.388 1.363 0 .754.622 1.364 1.388 1.364h.434l-.191.187a1.347 1.347 0 0 0 0 1.929c.271.267.626.4.982.4.355 0 .71-.133.981-.4l2.154-2.116h.064c.84 0 1.657.185 2.398.53.1-.027.2-.054.3-.079l-.092.03a14.721 14.721 0 0 0-6.126 3.957c-2.861 3.105-3.91 6.977-3.03 11.198.647 3.108 2.122 5.31 2.184 5.403a1.4 1.4 0 0 0 2.55-.632c.007-.064.766-6.449 4.685-10.062.5-.46 2.387-1.927 5.715-1.476 1.174.159 2.31.253 3.408.284a5.72 5.72 0 0 1 .505 3.826l-.014.064-2.57 1.669a1.416 1.416 0 0 0-.418 1.944 1.383 1.383 0 0 0 1.924.423l.227-.147-.092.429a1.407 1.407 0 0 0 1.064 1.674 1.396 1.396 0 0 0 1.656-1.076l.093-.429.146.23a1.379 1.379 0 0 0 1.924.423c.647-.42.834-1.291.419-1.944l-1.652-2.598.014-.063a8.57 8.57 0 0 0-.243-4.507c3.788-.33 7.028-1.534 9.679-3.605.313-.245.618-.501.913-.768a8.405 8.405 0 0 0 5.486 2.026h.064l2.146 2.116c.27.267.624.4.978.4s.708-.133.978-.4a1.348 1.348 0 0 0 0-1.928l-.189-.188h.431c.764 0 1.383-.61 1.383-1.363 0-.754-.619-1.364-1.383-1.364h-.432l.19-.188a1.35 1.35 0 0 0 0-1.928 1.396 1.396 0 0 0-1.956 0l-2.146 2.116h-.064a5.62 5.62 0 0 1-3.607-1.303c1.527-1.916 2.724-4.233 3.575-6.928 2.2-.781 3.758-2.065 4.637-3.822 1.558-3.112 2.109-10.295-1.697-12.225z" fill="#8A90AC"/></g><g><rect x="80.237" y="88.228" width="32.692" height="2.667" rx="1.333" transform="rotate(-40 80.237 88.228)" fill="#B1B4C5"/><g fill-rule="evenodd" clip-rule="evenodd" fill="#B1B4C5"><path d="M96.523 67.63a1.217 1.217 0 0 1 1.34-1.114l8.044.848a1.217 1.217 0 1 1-.255 2.42l-8.043-.846a1.217 1.217 0 0 1-1.086-1.308z"/><path d="M105.064 77.809a1.217 1.217 0 0 1-1.099-1.297l.562-8.068a1.218 1.218 0 0 1 2.429.17l-.562 8.068a1.218 1.218 0 0 1-1.33 1.127z"/></g></g><g><rect width="32.692" height="2.667" rx="1.333" transform="scale(1 -1) rotate(-40 21.017 -347.424)" fill="#B1B4C5"/><g fill-rule="evenodd" clip-rule="evenodd" fill="#B1B4C5"><path d="M244.523 88.37c.054.682.66 1.185 1.341 1.114l8.043-.848a1.217 1.217 0 1 0-.255-2.42l-8.043.846c-.657.07-1.139.65-1.086 1.308z"/><path d="M253.064 78.191a1.217 1.217 0 0 0-1.099 1.297l.562 8.068a1.218 1.218 0 0 0 2.429-.17l-.562-8.068a1.218 1.218 0 0 0-1.33-1.127z"/></g></g><g><rect x="300.097" y="204.826" width="32.692" height="2.667" rx="1.333" transform="rotate(127 300.097 204.826)" fill="#B1B4C5"/><g fill-rule="evenodd" clip-rule="evenodd" fill="#B1B4C5"><path d="M288.862 228.559c.1.677-.377 1.304-1.056 1.387l-8.028.984a1.217 1.217 0 0 1-.296-2.416l8.027-.984a1.218 1.218 0 0 1 1.353 1.029z"/><path d="M278.25 220.563a1.217 1.217 0 0 1 1.362 1.016l1.267 7.988a1.217 1.217 0 1 1-2.404.381l-1.267-7.988a1.217 1.217 0 0 1 1.042-1.397z"/></g></g><g><rect width="32.692" height="2.667" rx="1.333" transform="matrix(-1 0 0 1 186 303.667)" fill="#B1B4C5"/><g fill-rule="evenodd" clip-rule="evenodd" fill="#B1B4C5"><path d="M160.285 298.357a1.218 1.218 0 0 0-1.744.008l-5.617 5.819a1.219 1.219 0 0 0 1.752 1.691l5.617-5.819a1.216 1.216 0 0 0-.008-1.699z"/><path d="M160.285 311.643c.463-.47.467-1.224.008-1.699l-5.617-5.819a1.217 1.217 0 1 0-1.752 1.691l5.617 5.819a1.218 1.218 0 0 0 1.744.008z"/></g></g><g><rect width="32.692" height="2.667" rx="1.333" transform="scale(-1 1) rotate(-53 202.283 174.852)" fill="#B1B4C5"/><g fill-rule="evenodd" clip-rule="evenodd" fill="#B1B4C5"><path d="M47.862 207.441a1.217 1.217 0 0 0-1.056-1.387l-8.028-.984a1.217 1.217 0 1 0-.296 2.416l8.028.984a1.217 1.217 0 0 0 1.352-1.029z"/><path d="M37.25 215.437a1.217 1.217 0 0 0 1.362-1.016l1.267-7.988a1.217 1.217 0 1 0-2.404-.381l-1.267 7.988a1.217 1.217 0 0 0 1.042 1.397z"/></g></g><g><g clip-path="url(#g)"><rect width="85" height="2.667" rx="1.333" transform="matrix(-1 0 0 1 211.308 137.667)" fill="#B1B4C5"/><g fill-rule="evenodd" clip-rule="evenodd" fill="#B1B4C5"><path d="M133.285 132.357a1.218 1.218 0 0 0-1.744.008l-5.617 5.819a1.219 1.219 0 0 0 1.752 1.691l5.617-5.819a1.216 1.216 0 0 0-.008-1.699z"/><path d="M133.285 145.643c.463-.47.467-1.224.008-1.699l-5.617-5.819a1.217 1.217 0 1 0-1.752 1.691l5.617 5.819a1.218 1.218 0 0 0 1.744.008z"/></g><path d="M163.054 146.836c0 .38-.124.67-.372.87-.244.196-.56.294-.948.294h-1.344a.088.088 0 0 1-.054-.018.088.088 0 0 1-.018-.054v-4.056c0-.02.006-.036.018-.048a.075.075 0 0 1 .054-.024h1.254c.428 0 .76.096.996.288.236.188.354.476.354.864 0 .396-.154.682-.462.858-.02.012-.022.024-.006.036.352.2.528.53.528.99zm-1.86-2.31c-.02 0-.03.01-.03.03v.942c0 .02.01.03.03.03h.456c.16 0 .286-.044.378-.132a.482.482 0 0 0 .138-.366.49.49 0 0 0-.138-.372c-.088-.088-.214-.132-.378-.132h-.456zm.504 2.742a.49.49 0 0 0 .372-.138c.092-.096.138-.23.138-.402 0-.172-.046-.306-.138-.402a.47.47 0 0 0-.372-.15h-.504c-.02 0-.03.01-.03.03v1.032c0 .02.01.03.03.03h.504zm4.44-2.814c0 .02-.008.038-.024.054a.065.065 0 0 1-.048.018h-1.608c-.02 0-.03.01-.03.03v.936c0 .02.01.03.03.03h1.002c.02 0 .036.008.048.024a.057.057 0 0 1 .024.048v.582c0 .02-.008.038-.024.054a.065.065 0 0 1-.048.018h-1.002c-.02 0-.03.01-.03.03v.966c0 .02.01.03.03.03h1.608c.02 0 .036.008.048.024a.057.057 0 0 1 .024.048v.582c0 .02-.008.038-.024.054a.065.065 0 0 1-.048.018h-2.412a.088.088 0 0 1-.054-.018.088.088 0 0 1-.018-.054v-4.056c0-.02.006-.036.018-.048a.075.075 0 0 1 .054-.024h2.412c.02 0 .036.008.048.024a.057.057 0 0 1 .024.048v.582zm2.775 3.546c-.044 0-.072-.02-.084-.06l-.138-.588c-.004-.016-.014-.024-.03-.024h-1.122c-.016 0-.026.008-.03.024l-.138.588c-.012.04-.038.06-.078.06h-.726c-.052 0-.072-.026-.06-.078l1.08-4.062c.012-.04.04-.06.084-.06h.87c.044 0 .072.02.084.06l1.08 4.062.006.024c0 .036-.022.054-.066.054h-.732zm-1.242-1.362c-.004.012-.002.022.006.03a.053.053 0 0 0 .024.006h.792a.053.053 0 0 0 .024-.006c.008-.008.01-.018.006-.03l-.414-1.74c-.004-.016-.01-.024-.018-.024-.008 0-.014.008-.018.024l-.402 1.74zm4.655-2.838c.02 0 .036.008.048.024a.057.057 0 0 1 .024.048v.588c0 .02-.008.038-.024.054a.065.065 0 0 1-.048.018h-.912c-.02 0-.03.01-.03.03v3.366c0 .02-.008.038-.024.054a.065.065 0 0 1-.048.018h-.702a.088.088 0 0 1-.054-.018.088.088 0 0 1-.018-.054v-3.366c0-.02-.01-.03-.03-.03h-.882a.088.088 0 0 1-.054-.018.088.088 0 0 1-.018-.054v-.588c0-.02.006-.036.018-.048a.075.075 0 0 1 .054-.024h2.7zm1.791 4.248c-.276 0-.518-.048-.726-.144-.208-.1-.37-.238-.486-.414a1.145 1.145 0 0 1-.168-.618v-.156c0-.02.006-.036.018-.048a.075.075 0 0 1 .054-.024h.69c.02 0 .036.008.048.024a.057.057 0 0 1 .024.048v.114c0 .14.052.258.156.354a.611.611 0 0 0 .42.138c.156 0 .274-.04.354-.12a.404.404 0 0 0 .126-.306.36.36 0 0 0-.078-.234.75.75 0 0 0-.222-.186 5.095 5.095 0 0 0-.432-.24 5.097 5.097 0 0 1-.588-.336 1.439 1.439 0 0 1-.39-.402 1.056 1.056 0 0 1-.162-.594c0-.232.054-.434.162-.606a1.07 1.07 0 0 1 .468-.402c.2-.096.428-.144.684-.144.268 0 .506.052.714.156.208.1.37.242.486.426.116.184.174.396.174.636v.12c0 .02-.008.038-.024.054a.065.065 0 0 1-.048.018h-.69a.088.088 0 0 1-.054-.018.088.088 0 0 1-.018-.054v-.108a.478.478 0 0 0-.15-.36.565.565 0 0 0-.408-.144.49.49 0 0 0-.342.114.39.39 0 0 0-.12.306c0 .092.024.172.072.24a.785.785 0 0 0 .222.198c.1.06.252.14.456.24l.126.072c.232.128.412.24.54.336.132.092.242.21.33.354a.982.982 0 0 1 .132.522c0 .364-.124.654-.372.87-.244.212-.57.318-.978.318z" fill="#B1B4C5"/></g><g clip-path="url(#h)"><rect x="115.753" y="172.439" width="85" height="2.667" rx="1.333" transform="rotate(40 115.753 172.439)" fill="#B1B4C5"/><g fill-rule="evenodd" clip-rule="evenodd" fill="#B1B4C5"><path d="M178.936 218.523a1.218 1.218 0 0 1 1.33 1.127l.562 8.069a1.218 1.218 0 0 1-2.429.169l-.562-8.068a1.217 1.217 0 0 1 1.099-1.297z"/><path d="M170.395 228.702a1.216 1.216 0 0 1 1.086-1.307l8.043-.847a1.216 1.216 0 1 1 .255 2.421l-8.043.847a1.217 1.217 0 0 1-1.341-1.114z"/></g><path d="M148.245 193.397c-.244.291-.526.433-.844.427-.313-.006-.618-.134-.915-.384l-1.03-.864a.094.094 0 0 1-.03-.048.086.086 0 0 1 .021-.053l2.607-3.107a.061.061 0 0 1 .045-.025.075.075 0 0 1 .057.016l.96.806c.328.275.521.562.578.861.06.295-.035.592-.284.889-.254.304-.556.424-.905.36-.023-.003-.033.005-.028.024.141.38.064.746-.232 1.098zm.06-2.965c-.015-.013-.029-.012-.042.004l-.606.721c-.013.015-.011.03.004.042l.349.293a.523.523 0 0 0 .375.142.484.484 0 0 0 .341-.191c.102-.123.147-.247.133-.374-.011-.124-.079-.239-.205-.344l-.349-.293zm-1.376 2.424a.489.489 0 0 0 .373.134.559.559 0 0 0 .364-.22c.111-.131.162-.264.153-.396a.469.469 0 0 0-.189-.354l-.386-.324c-.015-.013-.029-.012-.042.003l-.663.791c-.013.015-.012.029.003.042l.387.324zm5.209.698a.072.072 0 0 1-.053.026.061.061 0 0 1-.048-.017l-1.232-1.033c-.015-.013-.029-.012-.042.003l-.602.717c-.013.016-.011.03.004.043l.767.644a.056.056 0 0 1 .022.049.058.058 0 0 1-.013.052l-.374.446a.075.075 0 0 1-.053.026.065.065 0 0 1-.048-.017l-.768-.644c-.015-.013-.029-.012-.042.003l-.621.74c-.013.016-.012.03.004.043l1.232 1.033a.06.06 0 0 1 .021.05.059.059 0 0 1-.013.052l-.374.446a.075.075 0 0 1-.053.026.066.066 0 0 1-.048-.018l-1.848-1.55a.094.094 0 0 1-.03-.048.086.086 0 0 1 .021-.053l2.607-3.107a.066.066 0 0 1 .045-.026.074.074 0 0 1 .057.017l1.848 1.55a.058.058 0 0 1 .021.049.06.06 0 0 1-.013.053l-.374.445zm-.153 4.501c-.034-.029-.042-.062-.026-.1l.273-.539c.007-.015.004-.028-.008-.038l-.86-.721c-.012-.011-.025-.011-.038-.001l-.484.362c-.035.023-.067.021-.098-.005l-.556-.466c-.04-.034-.039-.066.004-.099l3.438-2.417c.035-.023.07-.02.103.008l.667.559c.033.028.042.062.026.1l-1.784 3.806-.011.022c-.023.028-.052.028-.085-.001l-.561-.47zm-.076-1.842c-.011.007-.016.016-.015.027a.062.062 0 0 0 .015.02l.607.509a.05.05 0 0 0 .022.011c.011-.001.019-.008.024-.019l.801-1.599c.007-.015.008-.025.002-.03-.006-.005-.016-.003-.03.007l-1.426 1.074zm5.391.818a.06.06 0 0 1 .021.05.058.058 0 0 1-.013.052l-.377.45a.074.074 0 0 1-.054.026.062.062 0 0 1-.048-.017l-.699-.586c-.015-.013-.029-.012-.042.004l-2.163 2.578a.077.077 0 0 1-.054.026.062.062 0 0 1-.048-.017l-.538-.451a.085.085 0 0 1-.029-.049.094.094 0 0 1 .02-.053l2.164-2.578c.013-.015.012-.03-.004-.042l-.675-.567a.087.087 0 0 1-.03-.049.088.088 0 0 1 .021-.053l.378-.45a.061.061 0 0 1 .044-.025.073.073 0 0 1 .057.016l2.069 1.735zm-1.359 4.406a1.724 1.724 0 0 1-.464-.577 1.184 1.184 0 0 1-.106-.63c.03-.21.119-.404.269-.581l.1-.12a.065.065 0 0 1 .044-.025.073.073 0 0 1 .057.016l.529.444a.058.058 0 0 1 .021.049.054.054 0 0 1-.012.052l-.074.088a.462.462 0 0 0-.108.371.618.618 0 0 0 .233.376c.12.1.236.145.349.135a.404.404 0 0 0 .293-.153.365.365 0 0 0 .091-.229.763.763 0 0 0-.051-.286 5.054 5.054 0 0 0-.177-.461 5.226 5.226 0 0 1-.234-.636 1.421 1.421 0 0 1-.04-.558c.022-.195.108-.382.257-.559.149-.178.321-.298.514-.36a1.07 1.07 0 0 1 .617-.008c.215.055.42.165.616.33.206.172.355.365.447.578.095.211.128.423.099.639-.03.216-.122.415-.276.599l-.077.092a.077.077 0 0 1-.053.026.069.069 0 0 1-.049-.017l-.528-.444a.094.094 0 0 1-.03-.048.086.086 0 0 1 .021-.053l.069-.083a.476.476 0 0 0 .117-.372.565.565 0 0 0-.22-.373.493.493 0 0 0-.335-.132.392.392 0 0 0-.289.157.408.408 0 0 0-.099.23.779.779 0 0 0 .043.295c.038.11.103.269.195.477l.05.136c.095.247.161.448.198.604.042.156.05.317.025.484a.982.982 0 0 1-.234.484c-.234.279-.516.422-.845.428-.323.005-.641-.123-.953-.385z" fill="#B1B4C5"/></g><g clip-path="url(#i)"><rect x="153.896" y="228.114" width="85" height="2.667" rx="1.333" transform="rotate(-40 153.896 228.114)" fill="#B1B4C5"/><g fill-rule="evenodd" clip-rule="evenodd" fill="#B1B4C5"><path d="M210.251 173.894a1.219 1.219 0 0 1 1.341-1.114l8.044.847a1.219 1.219 0 0 1-.255 2.422l-8.044-.848a1.218 1.218 0 0 1-1.086-1.307z"/><path d="M218.792 184.072a1.217 1.217 0 0 1-1.099-1.296l.563-8.068a1.216 1.216 0 1 1 2.428.169l-.562 8.068a1.217 1.217 0 0 1-1.33 1.127z"/></g><path d="M180.177 199.755c.245.292.336.593.275.906-.061.307-.24.585-.538.835l-1.029.864a.091.091 0 0 1-.053.02.085.085 0 0 1-.049-.029l-2.607-3.107a.069.069 0 0 1-.017-.049.077.077 0 0 1 .026-.053l.961-.806c.328-.275.644-.415.948-.42.302-.007.577.138.826.435.255.303.321.621.198.954-.008.022-.001.033.019.031.398-.073.745.067 1.04.419zm-2.909-.574c-.016.013-.017.027-.004.043l.606.721c.012.016.026.017.042.004l.349-.293a.525.525 0 0 0 .205-.344.479.479 0 0 0-.13-.369.488.488 0 0 0-.345-.196c-.124-.011-.248.036-.374.141l-.349.293zm2.148 1.777a.493.493 0 0 0 .197-.345.562.562 0 0 0-.153-.396c-.111-.132-.232-.205-.364-.22a.471.471 0 0 0-.382.125l-.386.323c-.015.013-.016.027-.003.043l.663.79c.013.016.027.017.042.004l.386-.324zm1.593-5.009a.076.076 0 0 1 .016.056.069.069 0 0 1-.025.045l-1.232 1.034c-.015.013-.017.027-.004.042l.602.717c.013.015.027.016.042.004l.768-.644a.057.057 0 0 1 .052-.013.058.058 0 0 1 .049.021l.374.446a.08.08 0 0 1 .017.057.066.066 0 0 1-.026.045l-.767.644c-.016.013-.017.027-.004.042l.621.74c.013.015.027.017.042.004l1.232-1.034a.055.055 0 0 1 .052-.012.056.056 0 0 1 .049.021l.375.446a.077.077 0 0 1 .016.057.067.067 0 0 1-.025.044l-1.848 1.551a.086.086 0 0 1-.053.021.09.09 0 0 1-.048-.03l-2.608-3.107a.073.073 0 0 1-.017-.049.077.077 0 0 1 .026-.053l1.848-1.55a.058.058 0 0 1 .052-.013.055.055 0 0 1 .049.022l.375.446zm4.405.932c-.034.028-.068.031-.103.008l-.484-.362c-.013-.009-.026-.009-.038.001l-.86.721c-.012.011-.014.023-.007.038l.272.539c.017.039.01.071-.021.096l-.556.467c-.04.033-.072.026-.096-.021l-1.784-3.806c-.017-.038-.008-.072.026-.1l.666-.559c.034-.028.068-.031.103-.008l3.438 2.417.02.015c.024.027.018.055-.015.084l-.561.47zm-1.827-.245c.005.012.013.018.024.019a.05.05 0 0 0 .022-.011l.607-.509a.048.048 0 0 0 .014-.02c.001-.011-.004-.02-.014-.027l-1.436-1.066c-.013-.01-.023-.012-.029-.007-.006.005-.006.015.001.03l.811 1.591zm1.742-5.166a.058.058 0 0 1 .052-.013.056.056 0 0 1 .049.021l.378.451a.074.074 0 0 1 .017.057.067.067 0 0 1-.025.044l-.699.587c-.015.012-.017.026-.004.042l2.164 2.578a.076.076 0 0 1 .016.057.065.065 0 0 1-.025.045l-.538.451a.086.086 0 0 1-.053.021.094.094 0 0 1-.048-.03l-2.164-2.578c-.013-.016-.027-.017-.042-.004l-.676.567a.086.086 0 0 1-.053.021.094.094 0 0 1-.048-.03l-.378-.45c-.013-.016-.019-.032-.017-.049a.073.073 0 0 1 .026-.053l2.068-1.735zm4.102 2.103a1.714 1.714 0 0 1-.648.356 1.173 1.173 0 0 1-.639-.005 1.145 1.145 0 0 1-.526-.365l-.1-.12a.061.061 0 0 1-.017-.048.073.073 0 0 1 .026-.053l.528-.444a.06.06 0 0 1 .053-.012.058.058 0 0 1 .049.021l.073.088c.09.107.206.164.347.171a.617.617 0 0 0 .411-.165c.119-.1.184-.206.194-.319a.405.405 0 0 0-.101-.316.362.362 0 0 0-.21-.129.758.758 0 0 0-.289.001 5.141 5.141 0 0 0-.486.093 4.997 4.997 0 0 1-.666.121 1.443 1.443 0 0 1-.557-.057 1.067 1.067 0 0 1-.506-.351 1.11 1.11 0 0 1-.265-.569 1.064 1.064 0 0 1 .1-.608c.091-.202.235-.386.431-.55.205-.173.421-.286.647-.34.224-.057.439-.052.646.014.208.067.388.192.543.375l.077.092a.076.076 0 0 1 .016.057.065.065 0 0 1-.025.045l-.529.443a.086.086 0 0 1-.053.021.086.086 0 0 1-.048-.029l-.07-.083a.478.478 0 0 0-.346-.18.569.569 0 0 0-.405.152.496.496 0 0 0-.189.308.39.39 0 0 0 .105.311.408.408 0 0 0 .209.138.8.8 0 0 0 .298.009c.115-.019.283-.055.503-.11l.143-.025c.26-.052.47-.081.63-.09.16-.015.32.005.48.059.16.054.306.159.437.315.234.279.325.581.274.905-.051.32-.232.61-.545.873z" fill="#B1B4C5"/></g><g clip-path="url(#j)"><rect x="213.378" y="206.126" width="85" height="2.667" rx="1.333" transform="rotate(-110 213.378 206.126)" fill="#B1B4C5"/><g fill-rule="evenodd" clip-rule="evenodd" fill="#B1B4C5"><path d="M181.703 134.624a1.216 1.216 0 0 1-.588-1.641l3.547-7.268a1.217 1.217 0 1 1 2.188 1.068l-3.547 7.268c-.29.593-1 .848-1.6.573z"/><path d="M194.189 130.08a1.217 1.217 0 0 1-1.594.589l-7.39-3.288a1.217 1.217 0 0 1 .99-2.224l7.389 3.288c.626.278.899 1.017.605 1.635z"/></g><path d="M195.718 171.73c.358-.13.672-.113.945.052.268.162.468.426.601.79l.459 1.263a.086.086 0 0 1 .002.057.082.082 0 0 1-.045.035l-3.811 1.388a.069.069 0 0 1-.051-.001.073.073 0 0 1-.041-.042l-.429-1.179c-.147-.402-.17-.747-.07-1.034.096-.286.326-.496.691-.628.372-.136.693-.089.964.14.018.015.03.013.036-.006.067-.4.317-.678.749-.835zm-1.534 2.538c.007.019.02.025.038.018l.886-.322c.018-.007.024-.02.017-.039l-.155-.428a.524.524 0 0 0-.254-.31.48.48 0 0 0-.391-.005c-.15.055-.251.14-.302.257-.053.113-.051.246.005.4l.156.429zm2.404-1.412c-.055-.15-.14-.251-.257-.302-.121-.054-.263-.051-.425.008-.161.059-.272.148-.33.267a.468.468 0 0 0-.014.401l.172.473c.007.019.02.025.039.018l.97-.353c.018-.006.024-.019.018-.038l-.173-.474zm-4.163-3.209a.072.072 0 0 1 .059.004c.016.007.027.02.034.039l.55 1.511c.007.019.019.025.038.018l.88-.32c.018-.007.024-.02.018-.039l-.343-.941a.058.058 0 0 1 .006-.054.058.058 0 0 1 .037-.039l.547-.199a.081.081 0 0 1 .059.004.072.072 0 0 1 .033.039l.343.942c.007.019.019.025.038.018l.908-.33c.019-.007.025-.02.018-.039l-.55-1.511a.055.055 0 0 1 .006-.053.058.058 0 0 1 .037-.039l.547-.199a.072.072 0 0 1 .059.004c.015.007.026.02.033.039l.825 2.266a.093.093 0 0 1 .002.057.089.089 0 0 1-.045.036l-3.811 1.387a.067.067 0 0 1-.052-.001.074.074 0 0 1-.041-.042l-.825-2.267a.059.059 0 0 1 .007-.053.056.056 0 0 1 .037-.039l.546-.199zm2.383-3.821c.015.041.006.075-.027.1l-.506.33c-.013.01-.017.022-.012.037l.384 1.054c.005.015.016.022.033.02l.599-.071c.042-.003.07.015.083.052l.249.683c.018.049 0 .076-.053.083l-4.186.374c-.042.003-.071-.017-.086-.058l-.297-.818c-.015-.041-.006-.074.028-.099l3.447-2.404.021-.014c.033-.013.058.002.073.043l.25.688zm-.855 1.633c.013 0 .022-.006.026-.016a.047.047 0 0 0-.002-.024l-.271-.745a.052.052 0 0 0-.014-.02c-.01-.005-.02-.003-.03.004l-1.494.985c-.013.009-.019.017-.016.025.003.007.012.01.029.008l1.772-.217zm-4.259-3.404a.055.055 0 0 1 .006-.053.058.058 0 0 1 .037-.039l.553-.201a.072.072 0 0 1 .059.004c.015.007.026.02.033.039l.312.857c.007.018.02.024.038.018l3.163-1.152a.081.081 0 0 1 .059.004.07.07 0 0 1 .034.039l.24.66a.086.086 0 0 1 .001.057.085.085 0 0 1-.044.035l-3.163 1.152c-.019.006-.025.019-.018.038l.301.829a.086.086 0 0 1 .002.057.092.092 0 0 1-.045.035l-.552.201a.064.064 0 0 1-.051 0 .072.072 0 0 1-.041-.043l-.924-2.537zm3.38-3.136c.094.26.132.504.113.732-.023.23-.098.429-.223.598-.131.167-.306.29-.524.369l-.146.054c-.019.007-.036.007-.051-.001a.068.068 0 0 1-.041-.042l-.236-.649a.056.056 0 0 1 .006-.053.058.058 0 0 1 .037-.039l.107-.039a.465.465 0 0 0 .279-.268.61.61 0 0 0-.014-.441c-.053-.147-.131-.244-.234-.292a.403.403 0 0 0-.33-.014.364.364 0 0 0-.194.154.732.732 0 0 0-.098.272 5.04 5.04 0 0 0-.078.488 5.097 5.097 0 0 1-.115.667 1.436 1.436 0 0 1-.244.504 1.058 1.058 0 0 1-.503.356 1.125 1.125 0 0 1-.625.055 1.067 1.067 0 0 1-.538-.303 1.576 1.576 0 0 1-.369-.593 1.578 1.578 0 0 1-.098-.724c.023-.23.101-.431.235-.603.133-.172.312-.299.538-.381l.112-.041a.076.076 0 0 1 .059.004c.016.007.027.02.034.039l.236.649a.083.083 0 0 1 .001.056.09.09 0 0 1-.044.036l-.102.037a.478.478 0 0 0-.287.264.57.57 0 0 0 .004.433c.05.135.124.229.225.282.095.05.204.053.328.008a.395.395 0 0 0 .201-.15.79.79 0 0 0 .11-.276c.022-.115.046-.285.07-.511l.024-.143a4.89 4.89 0 0 1 .131-.622c.042-.156.115-.299.22-.431a.986.986 0 0 1 .445-.303c.343-.124.657-.107.945.052.283.157.494.427.634.81z" fill="#B1B4C5"/></g><g clip-path="url(#k)"><rect x="152.246" y="124.734" width="85" height="2.667" rx="1.333" transform="rotate(110 152.246 124.734)" fill="#B1B4C5"/><g fill-rule="evenodd" clip-rule="evenodd" fill="#B1B4C5"><path d="M130.55 199.868a1.217 1.217 0 0 1-.604 1.635l-7.389 3.288a1.217 1.217 0 0 1-.99-2.225l7.389-3.288a1.217 1.217 0 0 1 1.594.59z"/><path d="M118.065 195.323c.6-.274 1.31-.02 1.599.574l3.547 7.268a1.216 1.216 0 1 1-2.187 1.068l-3.548-7.269a1.218 1.218 0 0 1 .589-1.641z"/></g><path d="M143.665 162.434c-.357-.13-.587-.345-.691-.647-.1-.296-.084-.627.048-.991l.46-1.263a.089.089 0 0 1 .036-.045.09.09 0 0 1 .056.002l3.812 1.387a.065.065 0 0 1 .039.033.077.077 0 0 1 .004.059l-.429 1.179c-.146.402-.35.681-.611.837-.258.158-.569.17-.933.037-.372-.135-.589-.378-.649-.727-.004-.023-.015-.029-.031-.018-.309.262-.679.315-1.111.157zm2.807-.957c.006-.019.001-.032-.018-.039l-.885-.322c-.019-.007-.032-.001-.039.018l-.156.428a.526.526 0 0 0-.005.401c.051.116.15.201.297.255.15.054.282.054.396-.003.113-.052.198-.156.254-.31l.156-.428zm-2.749-.465a.491.491 0 0 0 .002.397.556.556 0 0 0 .331.267c.161.059.303.062.425.008a.47.47 0 0 0 .268-.298l.172-.474c.007-.019.001-.031-.018-.038l-.97-.353c-.018-.007-.031-.001-.038.018l-.172.473zm1.125 5.135a.077.077 0 0 1-.042-.041.071.071 0 0 1-.001-.052l.55-1.511c.007-.018.001-.031-.018-.038l-.879-.32c-.019-.007-.032-.001-.039.018l-.342.941a.058.058 0 0 1-.039.037.058.058 0 0 1-.054.006l-.546-.199a.072.072 0 0 1-.043-.041.064.064 0 0 1 0-.051l.342-.941c.007-.019.001-.032-.018-.039l-.907-.33c-.019-.007-.032-.001-.039.018l-.55 1.511a.06.06 0 0 1-.039.037.062.062 0 0 1-.053.006l-.547-.199a.078.078 0 0 1-.043-.041.067.067 0 0 1 0-.052l.825-2.266a.092.092 0 0 1 .035-.045.086.086 0 0 1 .057.002l3.812 1.387a.072.072 0 0 1 .039.033c.009.021.01.04.004.059l-.825 2.267a.058.058 0 0 1-.039.037.058.058 0 0 1-.054.006l-.547-.199zm-4.281 1.395c.015-.041.044-.061.085-.058l.6.071c.016.002.027-.005.033-.02l.384-1.054c.005-.015.001-.028-.013-.037l-.505-.331c-.034-.025-.044-.056-.03-.093l.248-.683c.018-.048.05-.058.094-.029l3.448 2.404c.033.025.043.058.028.099l-.298.818c-.015.041-.043.061-.085.058l-4.186-.374-.025-.003c-.034-.012-.043-.039-.028-.08l.25-.688zm1.705-.701c-.01-.008-.02-.01-.03-.005a.041.041 0 0 0-.014.021l-.271.744c-.003.007-.004.015-.003.024.005.011.014.016.026.016l1.777.206c.016.002.026-.001.029-.008.002-.008-.003-.016-.017-.025l-1.497-.973zm1.074 5.345a.056.056 0 0 1-.039.037.055.055 0 0 1-.053.006l-.552-.201a.078.078 0 0 1-.043-.041.069.069 0 0 1-.001-.051l.312-.857c.007-.019.001-.032-.018-.039l-3.163-1.151a.077.077 0 0 1-.042-.041.069.069 0 0 1-.001-.051l.241-.66a.082.082 0 0 1 .035-.045.093.093 0 0 1 .057.002l3.163 1.151c.019.007.031.001.038-.018l.302-.829a.095.095 0 0 1 .035-.044.093.093 0 0 1 .057.001l.553.202a.06.06 0 0 1 .039.033c.009.02.011.04.004.059l-.924 2.537zm-4.604.23c.094-.26.222-.471.384-.633.165-.161.35-.267.555-.315.207-.044.42-.026.638.053l.147.054a.06.06 0 0 1 .039.033c.009.02.011.04.004.059l-.236.648a.058.058 0 0 1-.039.037.056.056 0 0 1-.053.006l-.108-.039a.462.462 0 0 0-.386.026.61.61 0 0 0-.273.347c-.053.147-.056.271-.008.374a.403.403 0 0 0 .244.223.363.363 0 0 0 .247.007.758.758 0 0 0 .25-.145 5.06 5.06 0 0 0 .374-.324 5.12 5.12 0 0 1 .517-.438c.149-.107.32-.183.511-.229a1.06 1.06 0 0 1 .613.051c.218.08.39.199.514.36.127.165.2.358.218.577.022.221-.011.451-.099.692a1.567 1.567 0 0 1-.39.618 1.156 1.156 0 0 1-.567.311 1.168 1.168 0 0 1-.657-.054l-.113-.042a.068.068 0 0 1-.042-.041c-.008-.015-.008-.032-.001-.051l.236-.648a.089.089 0 0 1 .036-.045.083.083 0 0 1 .056.002l.102.037a.481.481 0 0 0 .39-.018.563.563 0 0 0 .274-.334.487.487 0 0 0 .01-.361.39.39 0 0 0-.246-.217.4.4 0 0 0-.25-.014.758.758 0 0 0-.262.14 6.608 6.608 0 0 0-.382.347l-.111.094a4.677 4.677 0 0 1-.5.392c-.132.093-.28.156-.446.189a.981.981 0 0 1-.535-.054c-.342-.125-.572-.341-.691-.647-.115-.302-.103-.645.036-1.028z" fill="#B1B4C5"/></g></g><path d="M257.599 61.866c0 .697-.227 1.228-.682 1.595-.447.36-1.027.539-1.738.539h-2.464a.16.16 0 0 1-.099-.033.16.16 0 0 1-.033-.099v-7.436c0-.037.011-.066.033-.088a.136.136 0 0 1 .099-.044h2.299c.785 0 1.393.176 1.826.528.433.345.649.873.649 1.584 0 .726-.282 1.25-.847 1.573-.037.022-.04.044-.011.066.645.367.968.972.968 1.815zm-3.41-4.235c-.037 0-.055.018-.055.055v1.727c0 .037.018.055.055.055h.836c.293 0 .524-.08.693-.242.169-.161.253-.385.253-.671 0-.293-.084-.52-.253-.682-.161-.161-.392-.242-.693-.242h-.836zm.924 5.027c.293 0 .521-.084.682-.253.169-.176.253-.422.253-.737s-.084-.561-.253-.737c-.161-.183-.389-.275-.682-.275h-.924c-.037 0-.055.018-.055.055v1.892c0 .037.018.055.055.055h.924zm8.139-5.159c0 .037-.014.07-.044.099a.118.118 0 0 1-.088.033h-2.948c-.036 0-.055.018-.055.055v1.716c0 .037.019.055.055.055h1.837c.037 0 .066.015.088.044.03.022.044.051.044.088v1.067c0 .037-.014.07-.044.099a.118.118 0 0 1-.088.033h-1.837c-.036 0-.055.018-.055.055v1.771c0 .037.019.055.055.055h2.948c.037 0 .066.015.088.044.03.022.044.051.044.088v1.067c0 .037-.014.07-.044.099a.118.118 0 0 1-.088.033h-4.422a.164.164 0 0 1-.099-.033.16.16 0 0 1-.033-.099v-7.436c0-.037.011-.066.033-.088a.14.14 0 0 1 .099-.044h4.422c.037 0 .066.015.088.044.03.022.044.051.044.088v1.067zM268.341 64c-.081 0-.132-.037-.154-.11l-.253-1.078c-.008-.03-.026-.044-.055-.044h-2.057c-.03 0-.048.015-.055.044l-.253 1.078c-.022.073-.07.11-.143.11h-1.331c-.096 0-.132-.048-.11-.143l1.98-7.447c.022-.073.073-.11.154-.11h1.595c.08 0 .132.037.154.11l1.98 7.447.011.044c0 .066-.041.099-.121.099h-1.342zm-2.277-2.497c-.008.022-.004.04.011.055a.095.095 0 0 0 .044.011h1.452a.101.101 0 0 0 .044-.011c.014-.015.018-.033.011-.055l-.759-3.19c-.008-.03-.019-.044-.033-.044-.015 0-.026.015-.033.044l-.737 3.19zm8.534-5.203c.037 0 .066.015.088.044.03.022.044.051.044.088v1.078c0 .037-.014.07-.044.099a.118.118 0 0 1-.088.033h-1.672c-.036 0-.055.018-.055.055v6.171c0 .037-.014.07-.044.099a.118.118 0 0 1-.088.033h-1.287a.164.164 0 0 1-.099-.033.16.16 0 0 1-.033-.099v-6.171c0-.037-.018-.055-.055-.055h-1.617a.164.164 0 0 1-.099-.033.16.16 0 0 1-.033-.099v-1.078c0-.037.011-.066.033-.088a.14.14 0 0 1 .099-.044h4.95zm3.283 7.788c-.506 0-.949-.088-1.331-.264a2.163 2.163 0 0 1-.891-.759 2.103 2.103 0 0 1-.308-1.133v-.286c0-.037.011-.066.033-.088a.14.14 0 0 1 .099-.044h1.265c.037 0 .066.015.088.044.03.022.044.051.044.088v.209c0 .257.096.473.286.649.191.169.448.253.77.253.286 0 .503-.073.649-.22a.741.741 0 0 0 .231-.561.655.655 0 0 0-.143-.429 1.371 1.371 0 0 0-.407-.341 9.12 9.12 0 0 0-.792-.44 9.367 9.367 0 0 1-1.078-.616 2.647 2.647 0 0 1-.715-.737c-.198-.3-.297-.664-.297-1.089 0-.425.099-.796.297-1.111a1.97 1.97 0 0 1 .858-.737 2.865 2.865 0 0 1 1.254-.264c.492 0 .928.095 1.309.286.382.183.679.444.891.781.213.337.319.726.319 1.166v.22c0 .037-.014.07-.044.099a.118.118 0 0 1-.088.033h-1.265a.164.164 0 0 1-.099-.033.16.16 0 0 1-.033-.099v-.198a.875.875 0 0 0-.275-.66c-.183-.176-.432-.264-.748-.264-.264 0-.473.07-.627.209-.146.132-.22.319-.22.561 0 .169.044.315.132.44.088.125.224.246.407.363.184.11.462.257.836.44l.231.132c.426.235.756.44.99.616.242.169.444.385.605.649.162.264.242.583.242.957 0 .667-.227 1.199-.682 1.595-.447.389-1.045.583-1.793.583zM60.599 61.866c0 .697-.227 1.228-.682 1.595-.447.36-1.027.539-1.738.539h-2.464a.16.16 0 0 1-.099-.033.16.16 0 0 1-.033-.099v-7.436c0-.037.011-.066.033-.088a.137.137 0 0 1 .099-.044h2.299c.785 0 1.393.176 1.826.528.433.345.649.873.649 1.584 0 .726-.282 1.25-.847 1.573-.037.022-.04.044-.011.066.645.367.968.972.968 1.815zm-3.41-4.235c-.037 0-.055.018-.055.055v1.727c0 .037.018.055.055.055h.836c.293 0 .524-.08.693-.242.169-.161.253-.385.253-.671 0-.293-.084-.52-.253-.682-.161-.161-.392-.242-.693-.242h-.836zm.924 5.027c.293 0 .52-.084.682-.253.169-.176.253-.422.253-.737s-.084-.561-.253-.737c-.161-.183-.389-.275-.682-.275h-.924c-.037 0-.055.018-.055.055v1.892c0 .037.018.055.055.055h.924zm8.14-5.159c0 .037-.015.07-.045.099a.119.119 0 0 1-.088.033h-2.948c-.036 0-.055.018-.055.055v1.716c0 .037.019.055.055.055h1.837c.037 0 .066.015.088.044.03.022.044.051.044.088v1.067c0 .037-.014.07-.044.099a.119.119 0 0 1-.088.033h-1.837c-.036 0-.055.018-.055.055v1.771c0 .037.019.055.055.055h2.948c.037 0 .066.015.088.044.03.022.044.051.044.088v1.067c0 .037-.014.07-.044.099a.119.119 0 0 1-.088.033h-4.422a.16.16 0 0 1-.099-.033.16.16 0 0 1-.033-.099v-7.436c0-.037.011-.066.033-.088a.137.137 0 0 1 .1-.044h4.421c.037 0 .066.015.088.044.03.022.044.051.044.088v1.067zM71.34 64c-.081 0-.132-.037-.154-.11l-.254-1.078c-.007-.03-.025-.044-.055-.044h-2.056c-.03 0-.048.015-.056.044l-.253 1.078c-.022.073-.07.11-.142.11H67.04c-.096 0-.133-.048-.11-.143l1.98-7.447c.022-.073.073-.11.154-.11h1.595c.08 0 .131.037.153.11l1.98 7.447.011.044c0 .066-.04.099-.12.099H71.34zm-2.277-2.497c-.008.022-.004.04.01.055.015.007.03.011.044.011h1.453c.014 0 .029-.004.044-.011.014-.015.018-.033.01-.055l-.758-3.19c-.008-.03-.019-.044-.034-.044-.014 0-.025.015-.032.044l-.737 3.19zm8.535-5.203c.036 0 .066.015.087.044.03.022.044.051.044.088v1.078c0 .037-.014.07-.044.099a.119.119 0 0 1-.088.033h-1.671c-.037 0-.056.018-.056.055v6.171c0 .037-.014.07-.043.099a.119.119 0 0 1-.088.033h-1.287a.16.16 0 0 1-.1-.033.16.16 0 0 1-.032-.099v-6.171c0-.037-.019-.055-.055-.055h-1.618a.16.16 0 0 1-.099-.033.16.16 0 0 1-.033-.099v-1.078c0-.037.011-.066.033-.088a.137.137 0 0 1 .1-.044h4.95zm3.282 7.788c-.506 0-.95-.088-1.33-.264a2.157 2.157 0 0 1-.892-.759 2.1 2.1 0 0 1-.308-1.133v-.286c0-.037.011-.066.033-.088a.137.137 0 0 1 .1-.044h1.264c.037 0 .066.015.088.044.03.022.044.051.044.088v.209c0 .257.096.473.286.649.19.169.448.253.77.253.286 0 .503-.073.65-.22a.741.741 0 0 0 .23-.561.658.658 0 0 0-.143-.429 1.376 1.376 0 0 0-.407-.341 9.341 9.341 0 0 0-.792-.44c-.44-.22-.8-.425-1.078-.616a2.637 2.637 0 0 1-.715-.737c-.198-.3-.297-.664-.297-1.089 0-.425.1-.796.297-1.111.206-.323.492-.568.858-.737a2.863 2.863 0 0 1 1.254-.264c.492 0 .928.095 1.31.286.38.183.678.444.89.781.213.337.32.726.32 1.166v.22c0 .037-.015.07-.045.099a.119.119 0 0 1-.088.033h-1.265a.16.16 0 0 1-.099-.033.16.16 0 0 1-.033-.099v-.198a.877.877 0 0 0-.275-.66c-.183-.176-.432-.264-.748-.264-.264 0-.473.07-.627.209-.146.132-.22.319-.22.561 0 .169.044.315.132.44.088.125.224.246.407.363.184.11.462.257.836.44l.231.132c.426.235.756.44.99.616.242.169.444.385.605.649.162.264.242.583.242.957 0 .667-.227 1.199-.682 1.595-.447.389-1.045.583-1.793.583zM310.599 222.866c0 .697-.227 1.228-.682 1.595-.447.359-1.027.539-1.738.539h-2.464a.16.16 0 0 1-.099-.033.16.16 0 0 1-.033-.099v-7.436c0-.037.011-.066.033-.088a.137.137 0 0 1 .099-.044h2.299c.785 0 1.393.176 1.826.528.433.345.649.873.649 1.584 0 .726-.282 1.25-.847 1.573-.037.022-.04.044-.011.066.645.367.968.972.968 1.815zm-3.41-4.235c-.037 0-.055.018-.055.055v1.727c0 .037.018.055.055.055h.836c.293 0 .524-.081.693-.242.169-.161.253-.385.253-.671 0-.293-.084-.521-.253-.682-.161-.161-.392-.242-.693-.242h-.836zm.924 5.027c.293 0 .521-.084.682-.253.169-.176.253-.422.253-.737s-.084-.561-.253-.737c-.161-.183-.389-.275-.682-.275h-.924c-.037 0-.055.018-.055.055v1.892c0 .037.018.055.055.055h.924zm8.139-5.159c0 .037-.014.07-.044.099a.118.118 0 0 1-.088.033h-2.948c-.036 0-.055.018-.055.055v1.716c0 .037.019.055.055.055h1.837c.037 0 .066.015.088.044.03.022.044.051.044.088v1.067c0 .037-.014.07-.044.099a.118.118 0 0 1-.088.033h-1.837c-.036 0-.055.018-.055.055v1.771c0 .037.019.055.055.055h2.948c.037 0 .066.015.088.044.03.022.044.051.044.088v1.067c0 .037-.014.07-.044.099a.118.118 0 0 1-.088.033h-4.422a.164.164 0 0 1-.099-.033.16.16 0 0 1-.033-.099v-7.436c0-.037.011-.066.033-.088a.14.14 0 0 1 .099-.044h4.422c.037 0 .066.015.088.044.03.022.044.051.044.088v1.067zm5.089 6.501c-.081 0-.132-.037-.154-.11l-.253-1.078c-.008-.029-.026-.044-.055-.044h-2.057c-.03 0-.048.015-.055.044l-.253 1.078c-.022.073-.07.11-.143.11h-1.331c-.096 0-.132-.048-.11-.143l1.98-7.447c.022-.073.073-.11.154-.11h1.595c.08 0 .132.037.154.11l1.98 7.447.011.044c0 .066-.041.099-.121.099h-1.342zm-2.277-2.497c-.008.022-.004.04.011.055a.099.099 0 0 0 .044.011h1.452a.106.106 0 0 0 .044-.011c.014-.015.018-.033.011-.055l-.759-3.19c-.008-.029-.019-.044-.033-.044-.015 0-.026.015-.033.044l-.737 3.19zm8.534-5.203c.037 0 .066.015.088.044.03.022.044.051.044.088v1.078c0 .037-.014.07-.044.099a.118.118 0 0 1-.088.033h-1.672c-.036 0-.055.018-.055.055v6.171c0 .037-.014.07-.044.099a.118.118 0 0 1-.088.033h-1.287a.164.164 0 0 1-.099-.033.16.16 0 0 1-.033-.099v-6.171c0-.037-.018-.055-.055-.055h-1.617a.164.164 0 0 1-.099-.033.16.16 0 0 1-.033-.099v-1.078c0-.037.011-.066.033-.088a.14.14 0 0 1 .099-.044h4.95zm3.283 7.788c-.506 0-.949-.088-1.331-.264a2.158 2.158 0 0 1-.891-.759 2.104 2.104 0 0 1-.308-1.133v-.286c0-.037.011-.066.033-.088a.14.14 0 0 1 .099-.044h1.265c.037 0 .066.015.088.044.03.022.044.051.044.088v.209a.85.85 0 0 0 .286.649c.191.169.448.253.77.253.286 0 .503-.073.649-.22a.742.742 0 0 0 .231-.561.654.654 0 0 0-.143-.429 1.371 1.371 0 0 0-.407-.341 9.04 9.04 0 0 0-.792-.44 9.323 9.323 0 0 1-1.078-.616 2.647 2.647 0 0 1-.715-.737c-.198-.301-.297-.664-.297-1.089 0-.425.099-.796.297-1.111a1.97 1.97 0 0 1 .858-.737 2.865 2.865 0 0 1 1.254-.264c.492 0 .928.095 1.309.286.382.183.679.444.891.781.213.337.319.726.319 1.166v.22c0 .037-.014.07-.044.099a.118.118 0 0 1-.088.033h-1.265a.164.164 0 0 1-.099-.033.16.16 0 0 1-.033-.099v-.198a.875.875 0 0 0-.275-.66c-.183-.176-.432-.264-.748-.264-.264 0-.473.07-.627.209-.146.132-.22.319-.22.561 0 .169.044.315.132.44.088.125.224.246.407.363.184.11.462.257.836.44l.231.132a8.7 8.7 0 0 1 .99.616c.242.169.444.385.605.649.162.264.242.583.242.957 0 .667-.227 1.199-.682 1.595-.447.389-1.045.583-1.793.583zM6.599 222.866c0 .697-.227 1.228-.682 1.595-.447.359-1.027.539-1.738.539H1.715a.16.16 0 0 1-.099-.033.16.16 0 0 1-.033-.099v-7.436c0-.037.011-.066.033-.088a.138.138 0 0 1 .099-.044h2.299c.785 0 1.393.176 1.826.528.433.345.649.873.649 1.584 0 .726-.282 1.25-.847 1.573-.037.022-.04.044-.011.066.645.367.968.972.968 1.815zm-3.41-4.235c-.037 0-.055.018-.055.055v1.727c0 .037.018.055.055.055h.836c.293 0 .524-.081.693-.242.169-.161.253-.385.253-.671 0-.293-.084-.521-.253-.682-.161-.161-.392-.242-.693-.242h-.836zm.924 5.027c.293 0 .52-.084.682-.253.169-.176.253-.422.253-.737s-.084-.561-.253-.737c-.161-.183-.389-.275-.682-.275h-.924c-.037 0-.055.018-.055.055v1.892c0 .037.018.055.055.055h.924zm8.14-5.159c0 .037-.015.07-.045.099a.119.119 0 0 1-.088.033H9.172c-.036 0-.055.018-.055.055v1.716c0 .037.019.055.055.055h1.837c.037 0 .066.015.088.044.03.022.044.051.044.088v1.067c0 .037-.014.07-.044.099a.119.119 0 0 1-.088.033H9.172c-.036 0-.055.018-.055.055v1.771c0 .037.019.055.055.055h2.948c.037 0 .066.015.088.044.03.022.044.051.044.088v1.067c0 .037-.014.07-.044.099a.119.119 0 0 1-.088.033H7.698a.16.16 0 0 1-.099-.033.16.16 0 0 1-.033-.099v-7.436c0-.037.011-.066.033-.088a.138.138 0 0 1 .1-.044h4.421c.037 0 .066.015.088.044.03.022.044.051.044.088v1.067zM17.34 225c-.08 0-.131-.037-.154-.11l-.253-1.078c-.007-.029-.025-.044-.055-.044h-2.056c-.03 0-.048.015-.055.044l-.253 1.078c-.022.073-.07.11-.143.11h-1.332c-.095 0-.131-.048-.11-.143l1.98-7.447c.022-.073.074-.11.154-.11h1.595c.081 0 .133.037.154.11l1.98 7.447.011.044c0 .066-.04.099-.12.099H17.34zm-2.277-2.497c-.007.022-.003.04.011.055.015.007.03.011.044.011h1.452c.015 0 .03-.004.044-.011.015-.015.019-.033.011-.055l-.758-3.19c-.008-.029-.019-.044-.034-.044-.014 0-.025.015-.033.044l-.737 3.19zM23.6 217.3c.036 0 .066.015.087.044.03.022.044.051.044.088v1.078c0 .037-.014.07-.044.099a.119.119 0 0 1-.087.033h-1.672c-.037 0-.055.018-.055.055v6.171c0 .037-.015.07-.044.099a.119.119 0 0 1-.088.033h-1.287a.16.16 0 0 1-.1-.033.16.16 0 0 1-.033-.099v-6.171c0-.037-.018-.055-.055-.055h-1.617a.16.16 0 0 1-.099-.033.16.16 0 0 1-.032-.099v-1.078c0-.037.01-.066.032-.088a.138.138 0 0 1 .1-.044h4.95zm3.282 7.788c-.506 0-.95-.088-1.33-.264a2.153 2.153 0 0 1-.892-.759 2.1 2.1 0 0 1-.308-1.133v-.286c0-.037.011-.066.033-.088a.138.138 0 0 1 .1-.044h1.264c.037 0 .066.015.088.044.03.022.044.051.044.088v.209c0 .257.096.473.286.649.19.169.448.253.77.253.286 0 .503-.073.65-.22a.742.742 0 0 0 .23-.561.657.657 0 0 0-.143-.429 1.376 1.376 0 0 0-.407-.341 9.257 9.257 0 0 0-.792-.44c-.44-.22-.8-.425-1.078-.616a2.637 2.637 0 0 1-.715-.737c-.198-.301-.297-.664-.297-1.089 0-.425.1-.796.297-1.111.206-.323.492-.568.858-.737a2.863 2.863 0 0 1 1.254-.264c.492 0 .928.095 1.31.286.38.183.678.444.89.781.213.337.32.726.32 1.166v.22c0 .037-.015.07-.045.099a.119.119 0 0 1-.088.033h-1.265a.16.16 0 0 1-.099-.033.16.16 0 0 1-.033-.099v-.198a.877.877 0 0 0-.275-.66c-.183-.176-.432-.264-.748-.264-.264 0-.473.07-.627.209-.146.132-.22.319-.22.561 0 .169.044.315.132.44.088.125.224.246.407.363.184.11.462.257.836.44l.231.132c.426.235.756.44.99.616.242.169.444.385.605.649.162.264.242.583.242.957 0 .667-.227 1.199-.682 1.595-.447.389-1.045.583-1.793.583zM159.599 325.866c0 .697-.227 1.228-.682 1.595-.447.359-1.027.539-1.738.539h-2.464a.16.16 0 0 1-.099-.033.16.16 0 0 1-.033-.099v-7.436c0-.037.011-.066.033-.088a.137.137 0 0 1 .099-.044h2.299c.785 0 1.393.176 1.826.528.433.345.649.873.649 1.584 0 .726-.282 1.25-.847 1.573-.037.022-.04.044-.011.066.645.367.968.972.968 1.815zm-3.41-4.235c-.037 0-.055.018-.055.055v1.727c0 .037.018.055.055.055h.836c.293 0 .524-.081.693-.242.169-.161.253-.385.253-.671 0-.293-.084-.521-.253-.682-.161-.161-.392-.242-.693-.242h-.836zm.924 5.027c.293 0 .521-.084.682-.253.169-.176.253-.422.253-.737s-.084-.561-.253-.737c-.161-.183-.389-.275-.682-.275h-.924c-.037 0-.055.018-.055.055v1.892c0 .037.018.055.055.055h.924zm8.139-5.159c0 .037-.014.07-.044.099a.118.118 0 0 1-.088.033h-2.948c-.036 0-.055.018-.055.055v1.716c0 .037.019.055.055.055h1.837c.037 0 .066.015.088.044.03.022.044.051.044.088v1.067c0 .037-.014.07-.044.099a.118.118 0 0 1-.088.033h-1.837c-.036 0-.055.018-.055.055v1.771c0 .037.019.055.055.055h2.948c.037 0 .066.015.088.044.03.022.044.051.044.088v1.067c0 .037-.014.07-.044.099a.118.118 0 0 1-.088.033h-4.422a.164.164 0 0 1-.099-.033.16.16 0 0 1-.033-.099v-7.436c0-.037.011-.066.033-.088a.14.14 0 0 1 .099-.044h4.422c.037 0 .066.015.088.044.03.022.044.051.044.088v1.067zm5.089 6.501c-.081 0-.132-.037-.154-.11l-.253-1.078c-.008-.029-.026-.044-.055-.044h-2.057c-.03 0-.048.015-.055.044l-.253 1.078c-.022.073-.07.11-.143.11h-1.331c-.096 0-.132-.048-.11-.143l1.98-7.447c.022-.073.073-.11.154-.11h1.595c.08 0 .132.037.154.11l1.98 7.447.011.044c0 .066-.041.099-.121.099h-1.342zm-2.277-2.497c-.008.022-.004.04.011.055a.099.099 0 0 0 .044.011h1.452a.106.106 0 0 0 .044-.011c.014-.015.018-.033.011-.055l-.759-3.19c-.008-.029-.019-.044-.033-.044-.015 0-.026.015-.033.044l-.737 3.19zm8.534-5.203c.037 0 .066.015.088.044.03.022.044.051.044.088v1.078c0 .037-.014.07-.044.099a.118.118 0 0 1-.088.033h-1.672c-.036 0-.055.018-.055.055v6.171c0 .037-.014.07-.044.099a.118.118 0 0 1-.088.033h-1.287a.164.164 0 0 1-.099-.033.16.16 0 0 1-.033-.099v-6.171c0-.037-.018-.055-.055-.055h-1.617a.164.164 0 0 1-.099-.033.16.16 0 0 1-.033-.099v-1.078c0-.037.011-.066.033-.088a.14.14 0 0 1 .099-.044h4.95zm3.283 7.788c-.506 0-.949-.088-1.331-.264a2.158 2.158 0 0 1-.891-.759 2.104 2.104 0 0 1-.308-1.133v-.286c0-.037.011-.066.033-.088a.14.14 0 0 1 .099-.044h1.265c.037 0 .066.015.088.044.03.022.044.051.044.088v.209a.85.85 0 0 0 .286.649c.191.169.448.253.77.253.286 0 .503-.073.649-.22a.742.742 0 0 0 .231-.561.654.654 0 0 0-.143-.429 1.371 1.371 0 0 0-.407-.341 9.04 9.04 0 0 0-.792-.44 9.323 9.323 0 0 1-1.078-.616 2.647 2.647 0 0 1-.715-.737c-.198-.301-.297-.664-.297-1.089 0-.425.099-.796.297-1.111a1.97 1.97 0 0 1 .858-.737 2.865 2.865 0 0 1 1.254-.264c.492 0 .928.095 1.309.286.382.183.679.444.891.781.213.337.319.726.319 1.166v.22c0 .037-.014.07-.044.099a.118.118 0 0 1-.088.033h-1.265a.164.164 0 0 1-.099-.033.16.16 0 0 1-.033-.099v-.198a.875.875 0 0 0-.275-.66c-.183-.176-.432-.264-.748-.264-.264 0-.473.07-.627.209-.146.132-.22.319-.22.561 0 .169.044.315.132.44.088.125.224.246.407.363.184.11.462.257.836.44l.231.132a8.7 8.7 0 0 1 .99.616c.242.169.444.385.605.649.162.264.242.583.242.957 0 .667-.227 1.199-.682 1.595-.447.389-1.045.583-1.793.583z" fill="#B1B4C5"/></g><defs><clipPath id="a"><path fill="#fff" d="M0 0h336v330H0z"/></clipPath><clipPath id="g"><path fill="#fff" transform="translate(124 131)" d="M0 0h88v21H0z"/></clipPath><clipPath id="h"><path fill="#fff" transform="rotate(40 -161.263 250.617)" d="M0 0h88v22H0z"/></clipPath><clipPath id="i"><path fill="#fff" transform="rotate(-40 373.262 -90.07)" d="M0 0h88v22H0z"/></clipPath><clipPath id="j"><path fill="#fff" transform="rotate(-110 174.766 34.934)" d="M0 0h88v22H0z"/></clipPath><clipPath id="k"><path fill="#fff" transform="rotate(110 37.234 121.76)" d="M0 0h88v22H0z"/></clipPath><linearGradient id="b" x1="233" y1="92" x2="233" y2="192.345" gradientUnits="userSpaceOnUse"><stop stop-color="#fff" stop-opacity=".097"/><stop offset="1" stop-color="#fff" stop-opacity=".01"/></linearGradient><linearGradient id="c" x1="0" y1="92" x2="0" y2="192.345" gradientUnits="userSpaceOnUse"><stop stop-color="#fff" stop-opacity=".097"/><stop offset="1" stop-color="#fff" stop-opacity=".01"/></linearGradient><linearGradient id="d" x1="117" y1="0" x2="117" y2="100.345" gradientUnits="userSpaceOnUse"><stop stop-color="#fff" stop-opacity=".097"/><stop offset="1" stop-color="#fff" stop-opacity=".01"/></linearGradient><linearGradient id="e" x1="187" y1="225" x2="187" y2="325.345" gradientUnits="userSpaceOnUse"><stop stop-color="#fff" stop-opacity=".097"/><stop offset="1" stop-color="#fff" stop-opacity=".01"/></linearGradient><linearGradient id="f" x1="46" y1="225" x2="46" y2="325.345" gradientUnits="userSpaceOnUse"><stop stop-color="#fff" stop-opacity=".097"/><stop offset="1" stop-color="#fff" stop-opacity=".01"/></linearGradient></defs></svg>