<svg width="293" height="300" fill="none" xmlns="http://www.w3.org/2000/svg"><ellipse cx="146.305" cy="150" rx="146.305" ry="150" fill="#C76C1B"/><ellipse cx="146.305" cy="143.35" rx="146.305" ry="143.35" fill="#EB9F0E"/><ellipse cx="146.305" cy="143.35" rx="146.305" ry="143.35" fill="url(#a)"/><circle cx="146.305" cy="146.305" r="112.315" fill="#BABFD4"/><ellipse cx="146.305" cy="152.217" rx="112.315" ry="106.404" fill="url(#b)"/><path d="m116.985 145.344 12.132-17.059c-5.043-.84-14.303-1.027-21.888 6.559C95.272 146.8 90.43 172.63 89.421 178.882l30.388 30.389c5.47-.469 29.691-3.703 53.029-27.041.248-.504 5.933-4.705 1.285-9.353-2.219-2.218-5.891-2.177-8.157.09-1.154 1.154-2.949 1.171-4.079.041-1.13-1.13-1.113-2.925.041-4.079l8.247-8.247c4.191-4.191.24-11.261-5.609-9.562l-6.752 5.78a2.894 2.894 0 0 1-4.079-.283c-1.047-1.213-.823-3.049.369-4.082 23.584-20.692 20.141-18.2 35.314-32.422 5.669-4.72-1.462-13.069-7.049-8.289l-36.706 33.008c-1.067.909-2.704.926-3.755-.042-1.212-1.047-1.24-2.556-.448-3.748l25.604-39.803c3.742-5.068-3.624-10.697-7.565-5.588l-37.856 52.945c-.913 1.32-2.753 1.623-4.007.699-1.257-.844-1.602-2.676-.651-3.951z" fill="#3B4262"/><defs><linearGradient id="a" x1="0" y1="0" x2="0" y2="286.699" gradientUnits="userSpaceOnUse"><stop stop-color="#fff" stop-opacity=".097"/><stop offset="1" stop-color="#fff" stop-opacity=".01"/></linearGradient><linearGradient id="b" x1="256.759" y1="258.621" x2="256.759" y2="49.34" gradientUnits="userSpaceOnUse"><stop stop-color="#F3F3F3"/><stop offset="1" stop-color="#DADADA"/></linearGradient></defs></svg>