<svg width="294" height="300" fill="none" xmlns="http://www.w3.org/2000/svg"><ellipse cx="146.959" cy="150" rx="146.959" ry="150" fill="#2D8DAB"/><ellipse cx="146.959" cy="143.35" rx="146.959" ry="143.35" fill="#3FB7CD"/><ellipse cx="146.959" cy="143.35" rx="146.959" ry="143.35" fill="url(#a)"/><ellipse cx="146.959" cy="146.306" rx="112.817" ry="112.315" fill="#BABFD4"/><ellipse cx="146.959" cy="152.217" rx="112.817" ry="106.404" fill="url(#b)"/><path d="m196.706 154.909-1.75-1.742c-4.179-4.163-11.013-5.07-16.115-2.15l-10.897 6.201 2.271-49.665c0-4.164-3.402-7.553-7.587-7.553-.904 0-1.774.159-2.58.45l.27-2.665c0-4.212-3.455-7.637-7.698-7.637-3.923 0-7.214 2.93-7.63 6.687l-6.992 42.059c-.092.573-1.087.515-1.194.154l-8.258-33.72c-.904-3.136-3.823-5.328-7.099-5.328a7.355 7.355 0 0 0-5.784 2.786 7.285 7.285 0 0 0-1.397 6.244l1.605 6.79a6.77 6.77 0 0 0-2.706.342 6.987 6.987 0 0 0-4.717 7.737l4.862 27.825c0 10.978 1.933 19.101 3.556 23.979a27.584 27.584 0 0 1 1.392 8.7c0 2.603-.363 5.193-1.083 7.695l-3.769 13.138a2.464 2.464 0 0 0 .401 2.159c.469.616 1.199.98 1.977.98h44.534a2.471 2.471 0 0 0 2.349-3.243c-.024-.065-2.093-6.425-.136-15.077 2.484-2.006 11.178-9.044 14.299-11.882 5.161-4.693 19.3-19.192 19.9-19.808a2.454 2.454 0 0 0-.024-3.456z" fill="#3B4262"/><defs><linearGradient id="a" x1="0" y1="0" x2="0" y2="286.699" gradientUnits="userSpaceOnUse"><stop stop-color="#fff" stop-opacity=".097"/><stop offset="1" stop-color="#fff" stop-opacity=".01"/></linearGradient><linearGradient id="b" x1="257.907" y1="258.621" x2="257.907" y2="49.34" gradientUnits="userSpaceOnUse"><stop stop-color="#F3F3F3"/><stop offset="1" stop-color="#DADADA"/></linearGradient></defs></svg>